<?xml version="1.0" encoding="UTF-8"?>
<?xml-stylesheet href="https://cdnjs.cloudflare.com/ajax/libs/font-awesome/6.7.2/css/all.min.css" type="text/css"?>
<svg id="graph-560" width="100%" xmlns="http://www.w3.org/2000/svg" class="flowchart" style="overflow: hidden; max-width: 100%; touch-action: none; user-select: none; -webkit-user-drag: none; -webkit-tap-highlight-color: rgba(0, 0, 0, 0); background-color: rgb(2, 8, 23);" role="graphics-document document" aria-roledescription="flowchart-v2" height="100%" xmlns:xlink="http://www.w3.org/1999/xlink" xmlns:ev="http://www.w3.org/2001/xml-events"><g id="viewport-20260305162618180" class="svg-pan-zoom_viewport" transform="matrix(0.13390800614228204,0,0,0.13390800614228204,254.97434807490563,93.28644384046483)" style="transform: matrix(0.133908, 0, 0, 0.133908, 254.974, 93.2864);"><style>#graph-560{font-family:"trebuchet ms",verdana,arial,sans-serif;font-size:16px;fill:#ccc;}@keyframes edge-animation-frame{from{stroke-dashoffset:0;}}@keyframes dash{to{stroke-dashoffset:0;}}#graph-560 .edge-animation-slow{stroke-dasharray:9,5!important;stroke-dashoffset:900;animation:dash 50s linear infinite;stroke-linecap:round;}#graph-560 .edge-animation-fast{stroke-dasharray:9,5!important;stroke-dashoffset:900;animation:dash 20s linear infinite;stroke-linecap:round;}#graph-560 .error-icon{fill:#a44141;}#graph-560 .error-text{fill:#ddd;stroke:#ddd;}#graph-560 .edge-thickness-normal{stroke-width:1px;}#graph-560 .edge-thickness-thick{stroke-width:3.5px;}#graph-560 .edge-pattern-solid{stroke-dasharray:0;}#graph-560 .edge-thickness-invisible{stroke-width:0;fill:none;}#graph-560 .edge-pattern-dashed{stroke-dasharray:3;}#graph-560 .edge-pattern-dotted{stroke-dasharray:2;}#graph-560 .marker{fill:lightgrey;stroke:lightgrey;}#graph-560 .marker.cross{stroke:lightgrey;}#graph-560 svg{font-family:"trebuchet ms",verdana,arial,sans-serif;font-size:16px;}#graph-560 p{margin:0;}#graph-560 .label{font-family:"trebuchet ms",verdana,arial,sans-serif;color:#ccc;}#graph-560 .cluster-label text{fill:#F9FFFE;}#graph-560 .cluster-label span{color:#F9FFFE;}#graph-560 .cluster-label span p{background-color:transparent;}#graph-560 .label text,#graph-560 span{fill:#ccc;color:#ccc;}#graph-560 .node rect,#graph-560 .node circle,#graph-560 .node ellipse,#graph-560 .node polygon,#graph-560 .node path{fill:#1f2020;stroke:#ccc;stroke-width:1px;}#graph-560 .rough-node .label text,#graph-560 .node .label text,#graph-560 .image-shape .label,#graph-560 .icon-shape .label{text-anchor:middle;}#graph-560 .node .katex path{fill:#000;stroke:#000;stroke-width:1px;}#graph-560 .rough-node .label,#graph-560 .node .label,#graph-560 .image-shape .label,#graph-560 .icon-shape .label{text-align:center;}#graph-560 .node.clickable{cursor:pointer;}#graph-560 .root .anchor path{fill:lightgrey!important;stroke-width:0;stroke:lightgrey;}#graph-560 .arrowheadPath{fill:lightgrey;}#graph-560 .edgePath .path{stroke:lightgrey;stroke-width:2.0px;}#graph-560 .flowchart-link{stroke:lightgrey;fill:none;}#graph-560 .edgeLabel{background-color:hsl(0, 0%, 34.4117647059%);text-align:center;}#graph-560 .edgeLabel p{background-color:hsl(0, 0%, 34.4117647059%);}#graph-560 .edgeLabel rect{opacity:0.5;background-color:hsl(0, 0%, 34.4117647059%);fill:hsl(0, 0%, 34.4117647059%);}#graph-560 .labelBkg{background-color:rgba(87.75, 87.75, 87.75, 0.5);}#graph-560 .cluster rect{fill:hsl(180, 1.5873015873%, 28.3529411765%);stroke:rgba(255, 255, 255, 0.25);stroke-width:1px;}#graph-560 .cluster text{fill:#F9FFFE;}#graph-560 .cluster span{color:#F9FFFE;}#graph-560 div.mermaidTooltip{position:absolute;text-align:center;max-width:200px;padding:2px;font-family:"trebuchet ms",verdana,arial,sans-serif;font-size:12px;background:hsl(20, 1.5873015873%, 12.3529411765%);border:1px solid rgba(255, 255, 255, 0.25);border-radius:2px;pointer-events:none;z-index:100;}#graph-560 .flowchartTitleText{text-anchor:middle;font-size:18px;fill:#ccc;}#graph-560 rect.text{fill:none;stroke-width:0;}#graph-560 .icon-shape,#graph-560 .image-shape{background-color:hsl(0, 0%, 34.4117647059%);text-align:center;}#graph-560 .icon-shape p,#graph-560 .image-shape p{background-color:hsl(0, 0%, 34.4117647059%);padding:2px;}#graph-560 .icon-shape rect,#graph-560 .image-shape rect{opacity:0.5;background-color:hsl(0, 0%, 34.4117647059%);fill:hsl(0, 0%, 34.4117647059%);}#graph-560 .label-icon{display:inline-block;height:1em;overflow:visible;vertical-align:-0.125em;}#graph-560 .node .label-icon path{fill:currentColor;stroke:revert;stroke-width:revert;}#graph-560 :root{--mermaid-font-family:"trebuchet ms",verdana,arial,sans-serif;}</style><g><marker id="graph-560_flowchart-v2-pointEnd" class="marker flowchart-v2" viewBox="0 0 10 10" refX="5" refY="5" markerUnits="userSpaceOnUse" markerWidth="8" markerHeight="8" orient="auto"><path d="M 0 0 L 10 5 L 0 10 z" class="arrowMarkerPath" style="stroke-width: 1; stroke-dasharray: 1, 0;"></path></marker><marker id="graph-560_flowchart-v2-pointStart" class="marker flowchart-v2" viewBox="0 0 10 10" refX="4.5" refY="5" markerUnits="userSpaceOnUse" markerWidth="8" markerHeight="8" orient="auto"><path d="M 0 5 L 10 10 L 10 0 z" class="arrowMarkerPath" style="stroke-width: 1; stroke-dasharray: 1, 0;"></path></marker><marker id="graph-560_flowchart-v2-circleEnd" class="marker flowchart-v2" viewBox="0 0 10 10" refX="11" refY="5" markerUnits="userSpaceOnUse" markerWidth="11" markerHeight="11" orient="auto"><circle cx="5" cy="5" r="5" class="arrowMarkerPath" style="stroke-width: 1; stroke-dasharray: 1, 0;"></circle></marker><marker id="graph-560_flowchart-v2-circleStart" class="marker flowchart-v2" viewBox="0 0 10 10" refX="-1" refY="5" markerUnits="userSpaceOnUse" markerWidth="11" markerHeight="11" orient="auto"><circle cx="5" cy="5" r="5" class="arrowMarkerPath" style="stroke-width: 1; stroke-dasharray: 1, 0;"></circle></marker><marker id="graph-560_flowchart-v2-crossEnd" class="marker cross flowchart-v2" viewBox="0 0 11 11" refX="12" refY="5.2" markerUnits="userSpaceOnUse" markerWidth="11" markerHeight="11" orient="auto"><path d="M 1,1 l 9,9 M 10,1 l -9,9" class="arrowMarkerPath" style="stroke-width: 2; stroke-dasharray: 1, 0;"></path></marker><marker id="graph-560_flowchart-v2-crossStart" class="marker cross flowchart-v2" viewBox="0 0 11 11" refX="-1" refY="5.2" markerUnits="userSpaceOnUse" markerWidth="11" markerHeight="11" orient="auto"><path d="M 1,1 l 9,9 M 10,1 l -9,9" class="arrowMarkerPath" style="stroke-width: 2; stroke-dasharray: 1, 0;"></path></marker><g class="root"><g class="clusters"><g class="cluster" id="FCR_FINANCE" data-look="classic"><rect style="fill:#E0F2F1 !important;stroke:#00695C !important" x="3494.0703125" y="369" width="581.4609375" height="230"></rect><g class="cluster-label" transform="translate(3730.58984375, 369)"><foreignObject width="108.421875" height="24"><div xmlns="http://www.w3.org/1999/xhtml" style="display: table-cell; white-space: nowrap; line-height: 1.5; max-width: 200px; text-align: center;"><span class="nodeLabel"><p>💰 FCR Finance</p></span></div></foreignObject></g></g><g class="cluster" id="CARDINAL" data-look="classic"><rect style="fill:#FFFDE7 !important;stroke:#F57F17 !important" x="2656.7109375" y="361" width="655.078125" height="171"></rect><g class="cluster-label" transform="translate(2917.95703125, 361)"><foreignObject width="132.5859375" height="24"><div xmlns="http://www.w3.org/1999/xhtml" style="display: table-cell; white-space: nowrap; line-height: 1.5; max-width: 200px; text-align: center;"><span class="nodeLabel"><p>🏦 Cardinal Health</p></span></div></foreignObject></g></g><g class="cluster" id="MANUFACTURERS" data-look="classic"><rect style="fill:#FCE4EC !important;stroke:#C62828 !important" x="2412.5546875" y="42" width="529.6328125" height="296"></rect><g class="cluster-label" transform="translate(2615.85546875, 42)"><foreignObject width="123.03125" height="24"><div xmlns="http://www.w3.org/1999/xhtml" style="display: table-cell; white-space: nowrap; line-height: 1.5; max-width: 200px; text-align: center;"><span class="nodeLabel"><p>💊 Manufacturers</p></span></div></foreignObject></g></g><g class="cluster" id="RA_PROCESSORS" data-look="classic"><rect style="fill:#F3E5F5 !important;stroke:#7B1FA2 !important" x="1918" y="8" width="263.671875" height="391"></rect><g class="cluster-label" transform="translate(1991.15234375, 8)"><foreignObject width="117.3671875" height="24"><div xmlns="http://www.w3.org/1999/xhtml" style="display: table-cell; white-space: nowrap; line-height: 1.5; max-width: 200px; text-align: center;"><span class="nodeLabel"><p>📨 RA Processors</p></span></div></foreignObject></g></g><g class="cluster" id="FCR_WAREHOUSE" data-look="classic"><rect style="fill:#FFF3E0 !important;stroke:#E65100 !important" x="976.8203125" y="8" width="741.9296875" height="497"></rect><g class="cluster-label" transform="translate(1247.78515625, 8)"><foreignObject width="200" height="48"><div xmlns="http://www.w3.org/1999/xhtml" style="display: table; white-space: break-spaces; line-height: 1.5; max-width: 200px; text-align: center; width: 200px;"><span class="nodeLabel"><p>🏭 FCR Warehouse (Cohoes, NY)</p></span></div></foreignObject></g></g><g class="cluster" id="FCR_FIELD" data-look="classic"><rect style="fill:#E8F5E9 !important;stroke:#2E7D32 !important" x="343.1953125" y="151" width="459.8203125" height="148"></rect><g class="cluster-label" transform="translate(487.0078125, 151)"><foreignObject width="172.1953125" height="24"><div xmlns="http://www.w3.org/1999/xhtml" style="display: table-cell; white-space: nowrap; line-height: 1.5; max-width: 200px; text-align: center;"><span class="nodeLabel"><p>📋 FCR Processor (Field)</p></span></div></foreignObject></g></g><g class="cluster" id="PHARMACY" data-look="classic"><rect style="fill:#E3F2FD !important;stroke:#1565C0 !important" x="8" y="166" width="223.8203125" height="433"></rect><g class="cluster-label" transform="translate(74.98046875, 166)"><foreignObject width="89.859375" height="24"><div xmlns="http://www.w3.org/1999/xhtml" style="display: table-cell; white-space: nowrap; line-height: 1.5; max-width: 200px; text-align: center;"><span class="nodeLabel"><p>🏪 Pharmacy</p></span></div></foreignObject></g></g></g><g class="edgePaths"><path d="M141.953,384L156.931,357.5C171.909,331,201.865,278,226.124,251.5C250.383,225,268.945,225,287.508,225C306.07,225,324.633,225,337.414,225C350.195,225,357.195,225,360.695,225L364.195,225" id="L_P1_F1_0" class="edge-thickness-normal edge-pattern-solid edge-thickness-normal edge-pattern-solid flowchart-link" style=";" data-edge="true" data-et="edge" data-id="L_P1_F1_0" data-points="W3sieCI6MTQxLjk1MzA2NTgxNDM5Mzk0LCJ5IjozODR9LHsieCI6MjMxLjgyMDMxMjUsInkiOjIyNX0seyJ4IjoyODcuNTA3ODEyNSwieSI6MjI1fSx7IngiOjM0My4xOTUzMTI1LCJ5IjoyMjV9LHsieCI6MzY4LjE5NTMxMjUsInkiOjIyNX1d" marker-end="url(#graph-560_flowchart-v2-pointEnd)"></path><path d="M535.961,225L540.128,225C544.294,225,552.628,225,560.294,225C567.961,225,574.961,225,578.461,225L581.961,225" id="L_F1_F2_0" class="edge-thickness-normal edge-pattern-solid edge-thickness-normal edge-pattern-solid flowchart-link" style=";" data-edge="true" data-et="edge" data-id="L_F1_F2_0" data-points="W3sieCI6NTM1Ljk2MDkzNzUsInkiOjIyNX0seyJ4Ijo1NjAuOTYwOTM3NSwieSI6MjI1fSx7IngiOjU4NS45NjA5Mzc1LCJ5IjoyMjV9XQ==" marker-end="url(#graph-560_flowchart-v2-pointEnd)"></path><path d="M778.016,225L782.182,225C786.349,225,794.682,225,813.333,225C831.983,225,860.951,225,889.918,225C918.885,225,947.853,225,965.837,225C983.82,225,990.82,225,994.32,225L997.82,225" id="L_F2_W1_0" class="edge-thickness-normal edge-pattern-solid edge-thickness-normal edge-pattern-solid flowchart-link" style=";" data-edge="true" data-et="edge" data-id="L_F2_W1_0" data-points="W3sieCI6Nzc4LjAxNTYyNSwieSI6MjI1fSx7IngiOjgwMy4wMTU2MjUsInkiOjIyNX0seyJ4Ijo4ODkuOTE3OTY4NzUsInkiOjIyNX0seyJ4Ijo5NzYuODIwMzEyNSwieSI6MjI1fSx7IngiOjEwMDEuODIwMzEyNSwieSI6MjI1fV0=" marker-end="url(#graph-560_flowchart-v2-pointEnd)"></path><path d="M1179.602,225L1183.768,225C1187.935,225,1196.268,225,1203.935,225C1211.602,225,1218.602,225,1222.102,225L1225.602,225" id="L_W1_W2_0" class="edge-thickness-normal edge-pattern-solid edge-thickness-normal edge-pattern-solid flowchart-link" style=";" data-edge="true" data-et="edge" data-id="L_W1_W2_0" data-points="W3sieCI6MTE3OS42MDE1NjI1LCJ5IjoyMjV9LHsieCI6MTIwNC42MDE1NjI1LCJ5IjoyMjV9LHsieCI6MTIyOS42MDE1NjI1LCJ5IjoyMjV9XQ==" marker-end="url(#graph-560_flowchart-v2-pointEnd)"></path><path d="M1420.617,225L1424.784,225C1428.951,225,1437.284,225,1444.951,225C1452.617,225,1459.617,225,1463.117,225L1466.617,225" id="L_W2_W3_0" class="edge-thickness-normal edge-pattern-solid edge-thickness-normal edge-pattern-solid flowchart-link" style=";" data-edge="true" data-et="edge" data-id="L_W2_W3_0" data-points="W3sieCI6MTQyMC42MTcxODc1LCJ5IjoyMjV9LHsieCI6MTQ0NS42MTcxODc1LCJ5IjoyMjV9LHsieCI6MTQ3MC42MTcxODc1LCJ5IjoyMjV9XQ==" marker-end="url(#graph-560_flowchart-v2-pointEnd)"></path><path d="M1605.042,264L1623.994,296.333C1642.945,328.667,1680.847,393.333,1716.403,425.667C1751.958,458,1785.167,458,1818.375,458C1851.583,458,1884.792,458,1923.368,458C1961.945,458,2005.891,458,2049.836,458C2093.781,458,2137.727,458,2178.939,458C2220.152,458,2258.633,458,2297.113,458C2335.594,458,2374.074,458,2411.577,458C2449.081,458,2485.607,458,2522.133,458C2558.659,458,2595.185,458,2617.615,458C2640.044,458,2648.378,458,2656.044,458C2663.711,458,2670.711,458,2674.211,458L2677.711,458" id="L_W3_C1_0" class="edge-thickness-normal edge-pattern-solid edge-thickness-normal edge-pattern-solid flowchart-link" style=";" data-edge="true" data-et="edge" data-id="L_W3_C1_0" data-points="W3sieCI6MTYwNS4wNDIzNDg0NDQyMDYsInkiOjI2NH0seyJ4IjoxNzE4Ljc1LCJ5Ijo0NTh9LHsieCI6MTgxOC4zNzUsInkiOjQ1OH0seyJ4IjoxOTE4LCJ5Ijo0NTh9LHsieCI6MjA0OS44MzU5Mzc1LCJ5Ijo0NTh9LHsieCI6MjE4MS42NzE4NzUsInkiOjQ1OH0seyJ4IjoyMjk3LjExMzI4MTI1LCJ5Ijo0NTh9LHsieCI6MjQxMi41NTQ2ODc1LCJ5Ijo0NTh9LHsieCI6MjUyMi4xMzI4MTI1LCJ5Ijo0NTh9LHsieCI6MjYzMS43MTA5Mzc1LCJ5Ijo0NTh9LHsieCI6MjY1Ni43MTA5Mzc1LCJ5Ijo0NTh9LHsieCI6MjY4MS43MTA5Mzc1LCJ5Ijo0NTh9XQ==" marker-end="url(#graph-560_flowchart-v2-pointEnd)"></path><path d="M1615.472,186L1632.685,165.833C1649.898,145.667,1684.324,105.333,1718.141,85.167C1751.958,65,1785.167,65,1818.375,65C1851.583,65,1884.792,65,1905.282,66.179C1925.772,67.358,1933.545,69.716,1937.431,70.895L1941.317,72.075" id="L_W3_R1_0" class="edge-thickness-normal edge-pattern-solid edge-thickness-normal edge-pattern-solid flowchart-link" style=";" data-edge="true" data-et="edge" data-id="L_W3_R1_0" data-points="W3sieCI6MTYxNS40NzE2NTUyNzM0Mzc2LCJ5IjoxODZ9LHsieCI6MTcxOC43NSwieSI6NjV9LHsieCI6MTgxOC4zNzUsInkiOjY1fSx7IngiOjE5MTgsInkiOjY1fSx7IngiOjE5NDUuMTQ0NTMxMjUsInkiOjczLjIzNTg1MTg1MTg1MTg1fV0=" marker-end="url(#graph-560_flowchart-v2-pointEnd)"></path><path d="M1693.75,241.339L1697.917,241.949C1702.083,242.559,1710.417,243.78,1731.188,244.39C1751.958,245,1785.167,245,1818.375,245C1851.583,245,1884.792,245,1904.925,246.071C1925.057,247.141,1932.115,249.283,1935.644,250.353L1939.172,251.424" id="L_W3_R2_0" class="edge-thickness-normal edge-pattern-solid edge-thickness-normal edge-pattern-solid flowchart-link" style=";" data-edge="true" data-et="edge" data-id="L_W3_R2_0" data-points="W3sieCI6MTY5My43NSwieSI6MjQxLjMzODc3NzQ5NDkyMjl9LHsieCI6MTcxOC43NSwieSI6MjQ1fSx7IngiOjE4MTguMzc1LCJ5IjoyNDV9LHsieCI6MTkxOCwieSI6MjQ1fSx7IngiOjE5NDMsInkiOjI1Mi41ODUxODUxODUxODUyfV0=" marker-end="url(#graph-560_flowchart-v2-pointEnd)"></path><path d="M1969.793,156L1961.161,161.5C1952.528,167,1935.264,178,1910.028,183.5C1884.792,189,1851.583,189,1818.375,189C1785.167,189,1751.958,189,1731.832,189.928C1711.706,190.857,1704.662,192.714,1701.14,193.642L1697.618,194.571" id="L_R1_W3_0" class="edge-thickness-normal edge-pattern-solid edge-thickness-normal edge-pattern-solid flowchart-link" style=";" data-edge="true" data-et="edge" data-id="L_R1_W3_0" data-points="W3sieCI6MTk2OS43OTI2ODk3MzIxNDMsInkiOjE1Nn0seyJ4IjoxOTE4LCJ5IjoxODl9LHsieCI6MTgxOC4zNzUsInkiOjE4OX0seyJ4IjoxNzE4Ljc1LCJ5IjoxODl9LHsieCI6MTY5My43NSwieSI6MTk1LjU5MDIwMDUwOTEzODc1fV0=" marker-end="url(#graph-560_flowchart-v2-pointEnd)"></path><path d="M1974.29,336L1964.908,342.333C1955.526,348.667,1936.763,361.333,1910.777,367.667C1884.792,374,1851.583,374,1818.375,374C1785.167,374,1751.958,374,1719.001,356.158C1686.044,338.316,1653.338,302.633,1636.985,284.791L1620.632,266.949" id="L_R2_W3_0" class="edge-thickness-normal edge-pattern-solid edge-thickness-normal edge-pattern-solid flowchart-link" style=";" data-edge="true" data-et="edge" data-id="L_R2_W3_0" data-points="W3sieCI6MTk3NC4yODk1MDE0MDQ0OTQzLCJ5IjozMzZ9LHsieCI6MTkxOCwieSI6Mzc0fSx7IngiOjE4MTguMzc1LCJ5IjozNzR9LHsieCI6MTcxOC43NSwieSI6Mzc0fSx7IngiOjE2MTcuOTI5MTYzMTcxMTQxLCJ5IjoyNjR9XQ==" marker-end="url(#graph-560_flowchart-v2-pointEnd)"></path><path d="M1640.076,186L1653.188,177.167C1666.301,168.333,1692.525,150.667,1722.242,141.833C1751.958,133,1785.167,133,1818.375,133C1851.583,133,1884.792,133,1905.268,132.178C1925.744,131.355,1933.488,129.711,1937.36,128.888L1941.232,128.066" id="L_W3_R1_2" class="edge-thickness-normal edge-pattern-solid edge-thickness-normal edge-pattern-solid flowchart-link" style=";" data-edge="true" data-et="edge" data-id="L_W3_R1_2" data-points="W3sieCI6MTY0MC4wNzU4NzQ2NjAzMjYsInkiOjE4Nn0seyJ4IjoxNzE4Ljc1LCJ5IjoxMzN9LHsieCI6MTgxOC4zNzUsInkiOjEzM30seyJ4IjoxOTE4LCJ5IjoxMzN9LHsieCI6MTk0NS4xNDQ1MzEyNSwieSI6MTI3LjIzNDkwMzcwMzcwMzcxfV0=" marker-end="url(#graph-560_flowchart-v2-pointEnd)"></path><path d="M1642.707,264L1655.381,272.167C1668.055,280.333,1693.402,296.667,1722.68,304.833C1751.958,313,1785.167,313,1818.375,313C1851.583,313,1884.792,313,1904.91,312.254C1925.029,311.507,1932.058,310.014,1935.573,309.268L1939.087,308.521" id="L_W3_R2_2" class="edge-thickness-normal edge-pattern-solid edge-thickness-normal edge-pattern-solid flowchart-link" style=";" data-edge="true" data-et="edge" data-id="L_W3_R2_2" data-points="W3sieCI6MTY0Mi43MDczNDE5NzQ0MzE4LCJ5IjoyNjR9LHsieCI6MTcxOC43NSwieSI6MzEzfSx7IngiOjE4MTguMzc1LCJ5IjozMTN9LHsieCI6MTkxOCwieSI6MzEzfSx7IngiOjE5NDMsInkiOjMwNy42OTAzNzAzNzAzNzA0fV0=" marker-end="url(#graph-560_flowchart-v2-pointEnd)"></path><path d="M2154.527,105L2159.051,105C2163.576,105,2172.624,105,2196.388,105C2220.152,105,2258.633,105,2297.113,105C2335.594,105,2374.074,105,2406.945,119.678C2439.816,134.356,2467.077,163.713,2480.707,178.391L2494.338,193.069" id="L_R1_M1_0" class="edge-thickness-normal edge-pattern-solid edge-thickness-normal edge-pattern-solid flowchart-link" style=";" data-edge="true" data-et="edge" data-id="L_R1_M1_0" data-points="W3sieCI6MjE1NC41MjczNDM3NSwieSI6MTA1fSx7IngiOjIxODEuNjcxODc1LCJ5IjoxMDV9LHsieCI6MjI5Ny4xMTMyODEyNSwieSI6MTA1fSx7IngiOjI0MTIuNTU0Njg3NSwieSI6MTA1fSx7IngiOjI0OTcuMDU5ODUxNjk0OTE1MywieSI6MTk2fV0=" marker-end="url(#graph-560_flowchart-v2-pointEnd)"></path><path d="M2156.672,285L2160.839,285C2165.005,285,2173.339,285,2196.745,285C2220.152,285,2258.633,285,2297.113,285C2335.594,285,2374.074,285,2403.044,279.495C2432.014,273.99,2451.473,262.98,2461.202,257.475L2470.932,251.97" id="L_R2_M1_0" class="edge-thickness-normal edge-pattern-solid edge-thickness-normal edge-pattern-solid flowchart-link" style=";" data-edge="true" data-et="edge" data-id="L_R2_M1_0" data-points="W3sieCI6MjE1Ni42NzE4NzUsInkiOjI4NX0seyJ4IjoyMTgxLjY3MTg3NSwieSI6Mjg1fSx7IngiOjIyOTcuMTEzMjgxMjUsInkiOjI4NX0seyJ4IjoyNDEyLjU1NDY4NzUsInkiOjI4NX0seyJ4IjoyNDc0LjQxMzMwNjQ1MTYxMjcsInkiOjI1MH1d" marker-end="url(#graph-560_flowchart-v2-pointEnd)"></path><path d="M2606.711,223L2610.878,223C2615.044,223,2623.378,223,2631.711,223C2640.044,223,2648.378,223,2659.768,223C2671.158,223,2685.604,223,2692.827,223L2700.051,223" id="L_M1_M2_0" class="edge-thickness-normal edge-pattern-solid edge-thickness-normal edge-pattern-solid flowchart-link" style=";" data-edge="true" data-et="edge" data-id="L_M1_M2_0" data-points="W3sieCI6MjYwNi43MTA5Mzc1LCJ5IjoyMjN9LHsieCI6MjYzMS43MTA5Mzc1LCJ5IjoyMjN9LHsieCI6MjY1Ni43MTA5Mzc1LCJ5IjoyMjN9LHsieCI6MjcwNC4wNTA3ODEyNSwieSI6MjIzfV0=" marker-end="url(#graph-560_flowchart-v2-pointEnd)"></path><path d="M2894.848,223L2902.738,223C2910.628,223,2926.408,223,2946.217,254.833C2966.026,286.667,2989.865,350.333,3013.042,383.604C3036.219,416.875,3058.735,419.75,3069.993,421.187L3081.251,422.625" id="L_M2_C2_0" class="edge-thickness-normal edge-pattern-solid edge-thickness-normal edge-pattern-solid flowchart-link" style=";" data-edge="true" data-et="edge" data-id="L_M2_C2_0" data-points="W3sieCI6Mjg5NC44NDc2NTYyNSwieSI6MjIzfSx7IngiOjI5NDIuMTg3NSwieSI6MjIzfSx7IngiOjMwMTMuNzAzMTI1LCJ5Ijo0MTR9LHsieCI6MzA4NS4yMTg3NSwieSI6NDIzLjEzMTM3OTA4MzYzMzd9XQ==" marker-end="url(#graph-560_flowchart-v2-pointEnd)"></path><path d="M2917.188,458L2921.354,458C2925.521,458,2933.854,458,2949.94,458C2966.026,458,2989.865,458,3013.042,456.563C3036.219,455.125,3058.735,452.25,3069.993,450.813L3081.251,449.375" id="L_C1_C2_0" class="edge-thickness-normal edge-pattern-dotted edge-thickness-normal edge-pattern-solid flowchart-link" style=";" data-edge="true" data-et="edge" data-id="L_C1_C2_0" data-points="W3sieCI6MjkxNy4xODc1LCJ5Ijo0NTh9LHsieCI6Mjk0Mi4xODc1LCJ5Ijo0NTh9LHsieCI6MzAxMy43MDMxMjUsInkiOjQ1OH0seyJ4IjozMDg1LjIxODc1LCJ5Ijo0NDguODY4NjIwOTE2MzY2M31d" marker-end="url(#graph-560_flowchart-v2-pointEnd)"></path><path d="M3286.789,436L3290.956,436C3295.122,436,3303.456,436,3322.813,436C3342.169,436,3372.549,436,3402.93,436C3433.31,436,3463.69,436,3482.38,436C3501.07,436,3508.07,436,3511.57,436L3515.07,436" id="L_C2_FN1_0" class="edge-thickness-normal edge-pattern-solid edge-thickness-normal edge-pattern-solid flowchart-link" style=";" data-edge="true" data-et="edge" data-id="L_C2_FN1_0" data-points="W3sieCI6MzI4Ni43ODkwNjI1LCJ5Ijo0MzZ9LHsieCI6MzMxMS43ODkwNjI1LCJ5Ijo0MzZ9LHsieCI6MzQwMi45Mjk2ODc1LCJ5Ijo0MzZ9LHsieCI6MzQ5NC4wNzAzMTI1LCJ5Ijo0MzZ9LHsieCI6MzUxOS4wNzAzMTI1LCJ5Ijo0MzZ9XQ==" marker-end="url(#graph-560_flowchart-v2-pointEnd)"></path><path d="M3746.156,436L3750.323,436C3754.49,436,3762.823,436,3778.012,441.215C3793.202,446.43,3815.247,456.86,3826.27,462.074L3837.293,467.289" id="L_FN1_FN2_0" class="edge-thickness-normal edge-pattern-solid edge-thickness-normal edge-pattern-solid flowchart-link" style=";" data-edge="true" data-et="edge" data-id="L_FN1_FN2_0" data-points="W3sieCI6Mzc0Ni4xNTYyNSwieSI6NDM2fSx7IngiOjM3NzEuMTU2MjUsInkiOjQzNn0seyJ4IjozODQwLjkwODg1NDE2NjY2NjUsInkiOjQ2OX1d" marker-end="url(#graph-560_flowchart-v2-pointEnd)"></path><path d="M3796.156,544.772L3791.99,545.977C3787.823,547.181,3779.49,549.591,3752.232,550.795C3724.975,552,3678.794,552,3632.613,552C3586.432,552,3540.251,552,3501.971,552C3463.69,552,3433.31,552,3402.93,552C3372.549,552,3342.169,552,3306.015,552C3269.861,552,3227.932,552,3178.251,552C3128.57,552,3071.137,552,3030.501,552C2989.865,552,2966.026,552,2930.317,552C2894.608,552,2847.029,552,2799.449,552C2751.87,552,2704.29,552,2676.334,552C2648.378,552,2640.044,552,2617.615,552C2595.185,552,2558.659,552,2522.133,552C2485.607,552,2449.081,552,2411.577,552C2374.074,552,2335.594,552,2297.113,552C2258.633,552,2220.152,552,2178.939,552C2137.727,552,2093.781,552,2049.836,552C2005.891,552,1961.945,552,1923.368,552C1884.792,552,1851.583,552,1818.375,552C1785.167,552,1751.958,552,1712.593,552C1673.228,552,1627.706,552,1582.184,552C1536.661,552,1491.139,552,1448.294,552C1405.448,552,1365.279,552,1325.109,552C1284.94,552,1244.771,552,1205.704,552C1166.638,552,1128.674,552,1090.711,552C1052.747,552,1014.784,552,981.318,552C947.853,552,918.885,552,889.918,552C860.951,552,831.983,552,797.328,552C762.673,552,722.331,552,681.988,552C641.646,552,601.303,552,562.985,552C524.667,552,488.372,552,452.078,552C415.784,552,379.49,552,352.061,552C324.633,552,306.07,552,288.174,552C270.279,552,253.049,552,244.435,552L235.82,552" id="L_FN2_PHARMACY_0" class="edge-thickness-normal edge-pattern-solid edge-thickness-normal edge-pattern-solid flowchart-link" style=";" data-edge="true" data-et="edge" data-id="L_FN2_PHARMACY_0" data-points="W3sieCI6Mzc5Ni4xNTYyNSwieSI6NTQ0Ljc3MjA3MzkyMTk3MTJ9LHsieCI6Mzc3MS4xNTYyNSwieSI6NTUyfSx7IngiOjM2MzIuNjEzMjgxMjUsInkiOjU1Mn0seyJ4IjozNDk0LjA3MDMxMjUsInkiOjU1Mn0seyJ4IjozNDAyLjkyOTY4NzUsInkiOjU1Mn0seyJ4IjozMzExLjc4OTA2MjUsInkiOjU1Mn0seyJ4IjozMTg2LjAwMzkwNjI1LCJ5Ijo1NTJ9LHsieCI6MzAxMy43MDMxMjUsInkiOjU1Mn0seyJ4IjoyOTQyLjE4NzUsInkiOjU1Mn0seyJ4IjoyNzk5LjQ0OTIxODc1LCJ5Ijo1NTJ9LHsieCI6MjY1Ni43MTA5Mzc1LCJ5Ijo1NTJ9LHsieCI6MjYzMS43MTA5Mzc1LCJ5Ijo1NTJ9LHsieCI6MjUyMi4xMzI4MTI1LCJ5Ijo1NTJ9LHsieCI6MjQxMi41NTQ2ODc1LCJ5Ijo1NTJ9LHsieCI6MjI5Ny4xMTMyODEyNSwieSI6NTUyfSx7IngiOjIxODEuNjcxODc1LCJ5Ijo1NTJ9LHsieCI6MjA0OS44MzU5Mzc1LCJ5Ijo1NTJ9LHsieCI6MTkxOCwieSI6NTUyfSx7IngiOjE4MTguMzc1LCJ5Ijo1NTJ9LHsieCI6MTcxOC43NSwieSI6NTUyfSx7IngiOjE1ODIuMTgzNTkzNzUsInkiOjU1Mn0seyJ4IjoxNDQ1LjYxNzE4NzUsInkiOjU1Mn0seyJ4IjoxMzI1LjEwOTM3NSwieSI6NTUyfSx7IngiOjEyMDQuNjAxNTYyNSwieSI6NTUyfSx7IngiOjEwOTAuNzEwOTM3NSwieSI6NTUyfSx7IngiOjk3Ni44MjAzMTI1LCJ5Ijo1NTJ9LHsieCI6ODg5LjkxNzk2ODc1LCJ5Ijo1NTJ9LHsieCI6ODAzLjAxNTYyNSwieSI6NTUyfSx7IngiOjY4MS45ODgyODEyNSwieSI6NTUyfSx7IngiOjU2MC45NjA5Mzc1LCJ5Ijo1NTJ9LHsieCI6NDUyLjA3ODEyNSwieSI6NTUyfSx7IngiOjM0My4xOTUzMTI1LCJ5Ijo1NTJ9LHsieCI6Mjg3LjUwNzgxMjUsInkiOjU1Mn0seyJ4IjoyMzEuODIwMzEyNSwieSI6NTUyfSx7IngiOjE1My43NDM0NTkzMDIzMjU2LCJ5Ijo0NjJ9XQ==" marker-end="url(#graph-560_flowchart-v2-pointEnd)"></path></g><g class="edgeLabels"><g class="edgeLabel" transform="translate(287.5078125, 225)"><g class="label" data-id="L_P1_F1_0" transform="translate(-30.6875, -12)"><foreignObject width="61.375" height="24"><div xmlns="http://www.w3.org/1999/xhtml" class="labelBkg" style="display: table-cell; white-space: nowrap; line-height: 1.5; max-width: 200px; text-align: center;"><span class="edgeLabel"><p>Products</p></span></div></foreignObject></g></g><g class="edgeLabel"><g class="label" data-id="L_F1_F2_0" transform="translate(0, 0)"><foreignObject width="0" height="0"><div xmlns="http://www.w3.org/1999/xhtml" class="labelBkg" style="display: table-cell; white-space: nowrap; line-height: 1.5; max-width: 200px; text-align: center;"><span class="edgeLabel"></span></div></foreignObject></g></g><g class="edgeLabel" transform="translate(889.91796875, 225)"><g class="label" data-id="L_F2_W1_0" transform="translate(-61.90234375, -12)"><foreignObject width="123.8046875" height="24"><div xmlns="http://www.w3.org/1999/xhtml" class="labelBkg" style="display: table-cell; white-space: nowrap; line-height: 1.5; max-width: 200px; text-align: center;"><span class="edgeLabel"><p>📦 Ship via FedEx</p></span></div></foreignObject></g></g><g class="edgeLabel"><g class="label" data-id="L_W1_W2_0" transform="translate(0, 0)"><foreignObject width="0" height="0"><div xmlns="http://www.w3.org/1999/xhtml" class="labelBkg" style="display: table-cell; white-space: nowrap; line-height: 1.5; max-width: 200px; text-align: center;"><span class="edgeLabel"></span></div></foreignObject></g></g><g class="edgeLabel"><g class="label" data-id="L_W2_W3_0" transform="translate(0, 0)"><foreignObject width="0" height="0"><div xmlns="http://www.w3.org/1999/xhtml" class="labelBkg" style="display: table-cell; white-space: nowrap; line-height: 1.5; max-width: 200px; text-align: center;"><span class="edgeLabel"></span></div></foreignObject></g></g><g class="edgeLabel" transform="translate(2297.11328125, 458)"><g class="label" data-id="L_W3_C1_0" transform="translate(-82.6171875, -12)"><foreignObject width="165.234375" height="24"><div xmlns="http://www.w3.org/1999/xhtml" class="labelBkg" style="display: table-cell; white-space: nowrap; line-height: 1.5; max-width: 200px; text-align: center;"><span class="edgeLabel"><p>Monthly invoice upload</p></span></div></foreignObject></g></g><g class="edgeLabel" transform="translate(1818.375, 65)"><g class="label" data-id="L_W3_R1_0" transform="translate(-51.15625, -24)"><foreignObject width="102.3125" height="48"><div xmlns="http://www.w3.org/1999/xhtml" class="labelBkg" style="display: table-cell; white-space: nowrap; line-height: 1.5; max-width: 200px; text-align: center;"><span class="edgeLabel"><p>Individual DMs<br/>via email</p></span></div></foreignObject></g></g><g class="edgeLabel" transform="translate(1818.375, 245)"><g class="label" data-id="L_W3_R2_0" transform="translate(-51.58984375, -24)"><foreignObject width="103.1796875" height="48"><div xmlns="http://www.w3.org/1999/xhtml" class="labelBkg" style="display: table-cell; white-space: nowrap; line-height: 1.5; max-width: 200px; text-align: center;"><span class="edgeLabel"><p>Individual DMs<br/>via web portal</p></span></div></foreignObject></g></g><g class="edgeLabel" transform="translate(1818.375, 189)"><g class="label" data-id="L_R1_W3_0" transform="translate(-36.15234375, -12)"><foreignObject width="72.3046875" height="24"><div xmlns="http://www.w3.org/1999/xhtml" class="labelBkg" style="display: table-cell; white-space: nowrap; line-height: 1.5; max-width: 200px; text-align: center;"><span class="edgeLabel"><p>RA# + PDF</p></span></div></foreignObject></g></g><g class="edgeLabel" transform="translate(1818.375, 374)"><g class="label" data-id="L_R2_W3_0" transform="translate(-40.7890625, -12)"><foreignObject width="81.578125" height="24"><div xmlns="http://www.w3.org/1999/xhtml" class="labelBkg" style="display: table-cell; white-space: nowrap; line-height: 1.5; max-width: 200px; text-align: center;"><span class="edgeLabel"><p>RA# instant</p></span></div></foreignObject></g></g><g class="edgeLabel" transform="translate(1818.375, 133)"><g class="label" data-id="L_W3_R1_2" transform="translate(-67.51171875, -24)"><foreignObject width="135.0234375" height="48"><div xmlns="http://www.w3.org/1999/xhtml" class="labelBkg" style="display: table-cell; white-space: nowrap; line-height: 1.5; max-width: 200px; text-align: center;"><span class="edgeLabel"><p>Ship products<br/>with RA paperwork</p></span></div></foreignObject></g></g><g class="edgeLabel" transform="translate(1818.375, 313)"><g class="label" data-id="L_W3_R2_2" transform="translate(-67.51171875, -24)"><foreignObject width="135.0234375" height="48"><div xmlns="http://www.w3.org/1999/xhtml" class="labelBkg" style="display: table-cell; white-space: nowrap; line-height: 1.5; max-width: 200px; text-align: center;"><span class="edgeLabel"><p>Ship products<br/>with RA paperwork</p></span></div></foreignObject></g></g><g class="edgeLabel" transform="translate(2297.11328125, 105)"><g class="label" data-id="L_R1_M1_0" transform="translate(-90.44140625, -12)"><foreignObject width="180.8828125" height="24"><div xmlns="http://www.w3.org/1999/xhtml" class="labelBkg" style="display: table-cell; white-space: nowrap; line-height: 1.5; max-width: 200px; text-align: center;"><span class="edgeLabel"><p>Forward to manufacturer</p></span></div></foreignObject></g></g><g class="edgeLabel" transform="translate(2297.11328125, 285)"><g class="label" data-id="L_R2_M1_0" transform="translate(-90.44140625, -12)"><foreignObject width="180.8828125" height="24"><div xmlns="http://www.w3.org/1999/xhtml" class="labelBkg" style="display: table-cell; white-space: nowrap; line-height: 1.5; max-width: 200px; text-align: center;"><span class="edgeLabel"><p>Forward to manufacturer</p></span></div></foreignObject></g></g><g class="edgeLabel"><g class="label" data-id="L_M1_M2_0" transform="translate(0, 0)"><foreignObject width="0" height="0"><div xmlns="http://www.w3.org/1999/xhtml" class="labelBkg" style="display: table-cell; white-space: nowrap; line-height: 1.5; max-width: 200px; text-align: center;"><span class="edgeLabel"></span></div></foreignObject></g></g><g class="edgeLabel" transform="translate(2982.28577, 330.09225)"><g class="label" data-id="L_M2_C2_0" transform="translate(-46.515625, -12)"><foreignObject width="93.03125" height="24"><div xmlns="http://www.w3.org/1999/xhtml" class="labelBkg" style="display: table-cell; white-space: nowrap; line-height: 1.5; max-width: 200px; text-align: center;"><span class="edgeLabel"><p>Credit memo</p></span></div></foreignObject></g></g><g class="edgeLabel" transform="translate(3013.703125, 458)"><g class="label" data-id="L_C1_C2_0" transform="translate(-33.7734375, -12)"><foreignObject width="67.546875" height="24"><div xmlns="http://www.w3.org/1999/xhtml" class="labelBkg" style="display: table-cell; white-space: nowrap; line-height: 1.5; max-width: 200px; text-align: center;"><span class="edgeLabel"><p>Approved</p></span></div></foreignObject></g></g><g class="edgeLabel" transform="translate(3402.9296875, 436)"><g class="label" data-id="L_C2_FN1_0" transform="translate(-66.140625, -12)"><foreignObject width="132.28125" height="24"><div xmlns="http://www.w3.org/1999/xhtml" class="labelBkg" style="display: table-cell; white-space: nowrap; line-height: 1.5; max-width: 200px; text-align: center;"><span class="edgeLabel"><p>💵 Credit payment</p></span></div></foreignObject></g></g><g class="edgeLabel"><g class="label" data-id="L_FN1_FN2_0" transform="translate(0, 0)"><foreignObject width="0" height="0"><div xmlns="http://www.w3.org/1999/xhtml" class="labelBkg" style="display: table-cell; white-space: nowrap; line-height: 1.5; max-width: 200px; text-align: center;"><span class="edgeLabel"></span></div></foreignObject></g></g><g class="edgeLabel" transform="translate(2014.50023, 552)"><g class="label" data-id="L_FN2_PHARMACY_0" transform="translate(-74.625, -12)"><foreignObject width="149.25" height="24"><div xmlns="http://www.w3.org/1999/xhtml" class="labelBkg" style="display: table-cell; white-space: nowrap; line-height: 1.5; max-width: 200px; text-align: center;"><span class="edgeLabel"><p>💵 Wire/Check/Zelle</p></span></div></foreignObject></g></g></g><g class="nodes"><g class="node default" id="flowchart-P1-0" transform="translate(119.91015625, 423)"><rect class="basic label-container" style="" x="-86.91015625" y="-39" width="173.8203125" height="78"></rect><g class="label" style="" transform="translate(-56.91015625, -24)"><rect></rect><foreignObject width="113.8203125" height="48"><div xmlns="http://www.w3.org/1999/xhtml" style="display: table-cell; white-space: nowrap; line-height: 1.5; max-width: 200px; text-align: center;"><span class="nodeLabel"><p>Expired/Surplus<br/>Drug Products</p></span></div></foreignObject></g></g><g class="node default" id="flowchart-F1-1" transform="translate(452.078125, 225)"><rect class="basic label-container" style="" x="-83.8828125" y="-39" width="167.765625" height="78"></rect><g class="label" style="" transform="translate(-53.8828125, -24)"><rect></rect><foreignObject width="107.765625" height="48"><div xmlns="http://www.w3.org/1999/xhtml" style="display: table-cell; white-space: nowrap; line-height: 1.5; max-width: 200px; text-align: center;"><span class="nodeLabel"><p>Scan &amp; Catalog<br/>Products</p></span></div></foreignObject></g></g><g class="node default" id="flowchart-F2-2" transform="translate(681.98828125, 225)"><rect class="basic label-container" style="" x="-96.02734375" y="-39" width="192.0546875" height="78"></rect><g class="label" style="" transform="translate(-66.02734375, -24)"><rect></rect><foreignObject width="132.0546875" height="48"><div xmlns="http://www.w3.org/1999/xhtml" style="display: table-cell; white-space: nowrap; line-height: 1.5; max-width: 200px; text-align: center;"><span class="nodeLabel"><p>Generate Manifest<br/>+ License Plate</p></span></div></foreignObject></g></g><g class="node default" id="flowchart-W1-3" transform="translate(1090.7109375, 225)"><rect class="basic label-container" style="" x="-88.890625" y="-27" width="177.78125" height="54"></rect><g class="label" style="" transform="translate(-58.890625, -12)"><rect></rect><foreignObject width="117.78125" height="24"><div xmlns="http://www.w3.org/1999/xhtml" style="display: table-cell; white-space: nowrap; line-height: 1.5; max-width: 200px; text-align: center;"><span class="nodeLabel"><p>Receive &amp; Verify</p></span></div></foreignObject></g></g><g class="node default" id="flowchart-W2-4" transform="translate(1325.109375, 225)"><rect class="basic label-container" style="" x="-95.5078125" y="-27" width="191.015625" height="54"></rect><g class="label" style="" transform="translate(-65.5078125, -12)"><rect></rect><foreignObject width="131.015625" height="24"><div xmlns="http://www.w3.org/1999/xhtml" style="display: table-cell; white-space: nowrap; line-height: 1.5; max-width: 200px; text-align: center;"><span class="nodeLabel"><p>Monthly Close-Out</p></span></div></foreignObject></g></g><g class="node default" id="flowchart-W3-5" transform="translate(1582.18359375, 225)"><rect class="basic label-container" style="" x="-111.56640625" y="-39" width="223.1328125" height="78"></rect><g class="label" style="" transform="translate(-81.56640625, -24)"><rect></rect><foreignObject width="163.1328125" height="48"><div xmlns="http://www.w3.org/1999/xhtml" style="display: table-cell; white-space: nowrap; line-height: 1.5; max-width: 200px; text-align: center;"><span class="nodeLabel"><p>Generate Debit Memos<br/>Invoice at full WAC</p></span></div></foreignObject></g></g><g class="node default" id="flowchart-R1-6" transform="translate(2049.8359375, 105)"><rect class="basic label-container" style="" x="-104.69140625" y="-51" width="209.3828125" height="102"></rect><g class="label" style="" transform="translate(-74.69140625, -36)"><rect></rect><foreignObject width="149.3828125" height="72"><div xmlns="http://www.w3.org/1999/xhtml" style="display: table-cell; white-space: nowrap; line-height: 1.5; max-width: 200px; text-align: center;"><span class="nodeLabel"><p>Inmar<br/>2-6 week turnaround<br/>90%+ of returns</p></span></div></foreignObject></g></g><g class="node default" id="flowchart-R2-7" transform="translate(2049.8359375, 285)"><rect class="basic label-container" style="" x="-106.8359375" y="-51" width="213.671875" height="102"></rect><g class="label" style="" transform="translate(-76.8359375, -36)"><rect></rect><foreignObject width="153.671875" height="72"><div xmlns="http://www.w3.org/1999/xhtml" style="display: table-cell; white-space: nowrap; line-height: 1.5; max-width: 200px; text-align: center;"><span class="nodeLabel"><p>PharmaLink<br/>Same-day turnaround<br/>25-30 generic mfrs</p></span></div></foreignObject></g></g><g class="node default" id="flowchart-M1-8" transform="translate(2522.1328125, 223)"><rect class="basic label-container" style="" x="-84.578125" y="-27" width="169.15625" height="54"></rect><g class="label" style="" transform="translate(-54.578125, -12)"><rect></rect><foreignObject width="109.15625" height="24"><div xmlns="http://www.w3.org/1999/xhtml" style="display: table-cell; white-space: nowrap; line-height: 1.5; max-width: 200px; text-align: center;"><span class="nodeLabel"><p>Review Returns</p></span></div></foreignObject></g></g><g class="node default" id="flowchart-M2-9" transform="translate(2799.44921875, 223)"><rect class="basic label-container" style="" x="-95.3984375" y="-51" width="190.796875" height="102"></rect><g class="label" style="" transform="translate(-65.3984375, -36)"><rect></rect><foreignObject width="130.796875" height="72"><div xmlns="http://www.w3.org/1999/xhtml" style="display: table-cell; white-space: nowrap; line-height: 1.5; max-width: 200px; text-align: center;"><span class="nodeLabel"><p>Issue Credit Memo<br/>e.g. 73.2% of WAC<br/>avg 297 days</p></span></div></foreignObject></g></g><g class="node default" id="flowchart-C1-10" transform="translate(2799.44921875, 458)"><rect class="basic label-container" style="" x="-117.73828125" y="-39" width="235.4765625" height="78"></rect><g class="label" style="" transform="translate(-87.73828125, -24)"><rect></rect><foreignObject width="175.4765625" height="48"><div xmlns="http://www.w3.org/1999/xhtml" style="display: table-cell; white-space: nowrap; line-height: 1.5; max-width: 200px; text-align: center;"><span class="nodeLabel"><p>Approve Monthly Invoice<br/>within ~1 hour</p></span></div></foreignObject></g></g><g class="node default" id="flowchart-C2-11" transform="translate(3186.00390625, 436)"><rect class="basic label-container" style="" x="-100.78515625" y="-39" width="201.5703125" height="78"></rect><g class="label" style="" transform="translate(-70.78515625, -24)"><rect></rect><foreignObject width="141.5703125" height="48"><div xmlns="http://www.w3.org/1999/xhtml" style="display: table-cell; white-space: nowrap; line-height: 1.5; max-width: 200px; text-align: center;"><span class="nodeLabel"><p>Pass Credit Through<br/>to FCR</p></span></div></foreignObject></g></g><g class="node default" id="flowchart-FN1-12" transform="translate(3632.61328125, 436)"><rect class="basic label-container" style="" x="-113.54296875" y="-27" width="227.0859375" height="54"></rect><g class="label" style="" transform="translate(-83.54296875, -12)"><rect></rect><foreignObject width="167.0859375" height="24"><div xmlns="http://www.w3.org/1999/xhtml" style="display: table-cell; white-space: nowrap; line-height: 1.5; max-width: 200px; text-align: center;"><span class="nodeLabel"><p>Record Credit Received</p></span></div></foreignObject></g></g><g class="node default" id="flowchart-FN2-13" transform="translate(3923.34375, 508)"><rect class="basic label-container" style="" x="-127.1875" y="-39" width="254.375" height="78"></rect><g class="label" style="" transform="translate(-97.1875, -24)"><rect></rect><foreignObject width="194.375" height="48"><div xmlns="http://www.w3.org/1999/xhtml" style="display: table-cell; white-space: nowrap; line-height: 1.5; max-width: 200px; text-align: center;"><span class="nodeLabel"><p>Calculate Pharmacy Payout<br/>Credit minus FCR fee</p></span></div></foreignObject></g></g></g></g></g><text text-anchor="middle" x="2041.765625" y="-25" class="flowchartTitleText">First Class Returns — Money &amp; Product Flow</text></g></svg>